<mxfile host="Electron" modified="2024-06-28T22:57:15.907Z" agent="Mozilla/5.0 (Windows NT 10.0; Win64; x64) AppleWebKit/537.36 (KHTML, like Gecko) draw.io/24.4.13 Chrome/124.0.6367.207 Electron/30.0.6 Safari/537.36" etag="UUhRHcZ_PyCEPUZ3iS5X" version="24.4.13" type="device">
  <diagram id="C5RBs43oDa-KdzZeNtuy" name="Page-1">
    <mxGraphModel dx="1050" dy="621" grid="1" gridSize="10" guides="1" tooltips="1" connect="1" arrows="1" fold="1" page="1" pageScale="1" pageWidth="827" pageHeight="1169" math="0" shadow="0">
      <root>
        <mxCell id="WIyWlLk6GJQsqaUBKTNV-0" />
        <mxCell id="WIyWlLk6GJQsqaUBKTNV-1" parent="WIyWlLk6GJQsqaUBKTNV-0" />
        <mxCell id="WIyWlLk6GJQsqaUBKTNV-2" value="" style="rounded=0;html=1;jettySize=auto;orthogonalLoop=1;fontSize=11;endArrow=block;endFill=0;endSize=8;strokeWidth=1;shadow=0;labelBackgroundColor=none;edgeStyle=orthogonalEdgeStyle;fontFamily=Trebuchet MS;" parent="WIyWlLk6GJQsqaUBKTNV-1" source="WIyWlLk6GJQsqaUBKTNV-3" target="WIyWlLk6GJQsqaUBKTNV-6" edge="1">
          <mxGeometry relative="1" as="geometry" />
        </mxCell>
        <mxCell id="WIyWlLk6GJQsqaUBKTNV-3" value="Modelo de Classificação" style="rounded=1;whiteSpace=wrap;html=1;fontSize=12;glass=0;strokeWidth=1;shadow=0;fontFamily=Trebuchet MS;" parent="WIyWlLk6GJQsqaUBKTNV-1" vertex="1">
          <mxGeometry x="240" y="160" width="120" height="40" as="geometry" />
        </mxCell>
        <mxCell id="WIyWlLk6GJQsqaUBKTNV-5" value="Não" style="edgeStyle=orthogonalEdgeStyle;rounded=0;html=1;jettySize=auto;orthogonalLoop=1;fontSize=11;endArrow=block;endFill=0;endSize=8;strokeWidth=1;shadow=0;labelBackgroundColor=none;fontFamily=Trebuchet MS;" parent="WIyWlLk6GJQsqaUBKTNV-1" source="WIyWlLk6GJQsqaUBKTNV-6" target="WIyWlLk6GJQsqaUBKTNV-7" edge="1">
          <mxGeometry x="-0.2261" y="10" relative="1" as="geometry">
            <mxPoint as="offset" />
          </mxGeometry>
        </mxCell>
        <mxCell id="X03DwOi2yjzAOW-Rf4GD-6" value="" style="edgeStyle=orthogonalEdgeStyle;rounded=0;orthogonalLoop=1;jettySize=auto;html=1;endArrow=block;endFill=0;endSize=8;fontFamily=Trebuchet MS;" edge="1" parent="WIyWlLk6GJQsqaUBKTNV-1" source="WIyWlLk6GJQsqaUBKTNV-6" target="X03DwOi2yjzAOW-Rf4GD-4">
          <mxGeometry relative="1" as="geometry" />
        </mxCell>
        <mxCell id="X03DwOi2yjzAOW-Rf4GD-7" value="Sim" style="edgeLabel;html=1;align=center;verticalAlign=middle;resizable=0;points=[];fontFamily=Trebuchet MS;" vertex="1" connectable="0" parent="X03DwOi2yjzAOW-Rf4GD-6">
          <mxGeometry x="-0.56" y="-1" relative="1" as="geometry">
            <mxPoint x="17" y="11" as="offset" />
          </mxGeometry>
        </mxCell>
        <mxCell id="WIyWlLk6GJQsqaUBKTNV-6" value="É mistura?" style="rhombus;whiteSpace=wrap;html=1;shadow=0;fontFamily=Trebuchet MS;fontSize=12;align=center;strokeWidth=1;spacing=6;spacingTop=-4;" parent="WIyWlLk6GJQsqaUBKTNV-1" vertex="1">
          <mxGeometry x="250" y="250" width="100" height="80" as="geometry" />
        </mxCell>
        <mxCell id="X03DwOi2yjzAOW-Rf4GD-3" value="" style="edgeStyle=orthogonalEdgeStyle;rounded=0;orthogonalLoop=1;jettySize=auto;html=1;endSize=8;endArrow=block;endFill=0;fontFamily=Trebuchet MS;" edge="1" parent="WIyWlLk6GJQsqaUBKTNV-1" source="WIyWlLk6GJQsqaUBKTNV-7" target="X03DwOi2yjzAOW-Rf4GD-2">
          <mxGeometry relative="1" as="geometry" />
        </mxCell>
        <mxCell id="WIyWlLk6GJQsqaUBKTNV-7" value="Fluido está na fase líquida ou vapor" style="rounded=1;whiteSpace=wrap;html=1;fontSize=12;glass=0;strokeWidth=1;shadow=0;fontFamily=Trebuchet MS;" parent="WIyWlLk6GJQsqaUBKTNV-1" vertex="1">
          <mxGeometry x="401.75" y="270" width="120" height="40" as="geometry" />
        </mxCell>
        <mxCell id="X03DwOi2yjzAOW-Rf4GD-1" value="" style="edgeStyle=orthogonalEdgeStyle;rounded=0;orthogonalLoop=1;jettySize=auto;html=1;endArrow=block;endFill=0;endSize=8;fontFamily=Trebuchet MS;" edge="1" parent="WIyWlLk6GJQsqaUBKTNV-1" source="X03DwOi2yjzAOW-Rf4GD-0" target="WIyWlLk6GJQsqaUBKTNV-3">
          <mxGeometry relative="1" as="geometry" />
        </mxCell>
        <mxCell id="X03DwOi2yjzAOW-Rf4GD-0" value="Início" style="strokeWidth=2;html=1;shape=mxgraph.flowchart.start_2;whiteSpace=wrap;fontFamily=Trebuchet MS;fillColor=#E0E0E0;fontColor=#333333;strokeColor=#666666;fillStyle=solid;gradientColor=none;" vertex="1" parent="WIyWlLk6GJQsqaUBKTNV-1">
          <mxGeometry x="265" y="40" width="70" height="70" as="geometry" />
        </mxCell>
        <mxCell id="X03DwOi2yjzAOW-Rf4GD-2" value="Fim" style="strokeWidth=2;html=1;shape=mxgraph.flowchart.terminator;whiteSpace=wrap;fontFamily=Trebuchet MS;fillColor=#E0E0E0;fillStyle=solid;" vertex="1" parent="WIyWlLk6GJQsqaUBKTNV-1">
          <mxGeometry x="570" y="260" width="100" height="60" as="geometry" />
        </mxCell>
        <mxCell id="X03DwOi2yjzAOW-Rf4GD-11" value="" style="edgeStyle=orthogonalEdgeStyle;rounded=0;orthogonalLoop=1;jettySize=auto;html=1;endSize=8;endArrow=block;endFill=0;fontFamily=Trebuchet MS;" edge="1" parent="WIyWlLk6GJQsqaUBKTNV-1" source="X03DwOi2yjzAOW-Rf4GD-4" target="X03DwOi2yjzAOW-Rf4GD-10">
          <mxGeometry relative="1" as="geometry" />
        </mxCell>
        <mxCell id="X03DwOi2yjzAOW-Rf4GD-4" value="Modelo de Regressão" style="rounded=1;whiteSpace=wrap;html=1;fontSize=12;glass=0;strokeWidth=1;shadow=0;fontFamily=Trebuchet MS;" vertex="1" parent="WIyWlLk6GJQsqaUBKTNV-1">
          <mxGeometry x="240" y="380" width="120" height="40" as="geometry" />
        </mxCell>
        <mxCell id="X03DwOi2yjzAOW-Rf4GD-8" value="Modelo que classifica fluido entre &lt;b&gt;mistura&lt;/b&gt;, &lt;b&gt;líquido &lt;/b&gt;ou &lt;b&gt;vapor&lt;/b&gt;" style="text;html=1;align=center;verticalAlign=middle;whiteSpace=wrap;rounded=0;fontFamily=Trebuchet MS;" vertex="1" parent="WIyWlLk6GJQsqaUBKTNV-1">
          <mxGeometry x="370" y="145" width="140" height="70" as="geometry" />
        </mxCell>
        <mxCell id="X03DwOi2yjzAOW-Rf4GD-9" value="Modelo que define frações dos componentes das fases líquida e vapor" style="text;html=1;align=center;verticalAlign=middle;whiteSpace=wrap;rounded=0;fontFamily=Trebuchet MS;" vertex="1" parent="WIyWlLk6GJQsqaUBKTNV-1">
          <mxGeometry x="370" y="365" width="158.25" height="70" as="geometry" />
        </mxCell>
        <mxCell id="X03DwOi2yjzAOW-Rf4GD-10" value="Fim" style="strokeWidth=2;html=1;shape=mxgraph.flowchart.terminator;whiteSpace=wrap;fontFamily=Trebuchet MS;fillColor=#E0E0E0;fillStyle=solid;" vertex="1" parent="WIyWlLk6GJQsqaUBKTNV-1">
          <mxGeometry x="250" y="470" width="100" height="60" as="geometry" />
        </mxCell>
        <mxCell id="X03DwOi2yjzAOW-Rf4GD-12" value="Processo inicia-se com valores de &lt;b&gt;Pressão (P)&lt;/b&gt;, &lt;b&gt;Temperatura (T)&amp;nbsp;&lt;/b&gt;e &lt;b&gt;Composição (z&lt;sub&gt;i&lt;/sub&gt;)&amp;nbsp;&lt;/b&gt;do fluido" style="text;html=1;align=center;verticalAlign=middle;whiteSpace=wrap;rounded=0;fontFamily=Trebuchet MS;" vertex="1" parent="WIyWlLk6GJQsqaUBKTNV-1">
          <mxGeometry x="340" y="40" width="155.25" height="70" as="geometry" />
        </mxCell>
      </root>
    </mxGraphModel>
  </diagram>
</mxfile>
